<svg width="212" height="94" viewBox="0 0 212 94" fill="none" xmlns="http://www.w3.org/2000/svg">
<rect x="3.6469" width="62.8624" height="62.8624" transform="matrix(0.72938 -0.684108 0.72938 0.684108 0.986923 49.4926)" stroke="white" stroke-width="5"/>
<path d="M42.392 43.3668V44.7872H36.5114V43.3668H42.392ZM38.2727 54.2759V41.8611C38.2727 41.2361 38.4195 40.7153 38.7131 40.2986C39.0066 39.8819 39.3878 39.5694 39.8565 39.3611C40.3253 39.1528 40.8201 39.0486 41.3409 39.0486C41.7528 39.0486 42.089 39.0817 42.3494 39.148C42.6098 39.2143 42.804 39.2759 42.9318 39.3327L42.4489 40.7816C42.3636 40.7532 42.2453 40.7176 42.0938 40.675C41.947 40.6324 41.7528 40.6111 41.5114 40.6111C40.9574 40.6111 40.5573 40.7508 40.3111 41.0301C40.0696 41.3095 39.9489 41.7191 39.9489 42.2588V54.2759H38.2727ZM48.7237 54.5032C47.7389 54.5032 46.8748 54.2688 46.1314 53.8C45.3928 53.3313 44.8151 52.6755 44.3984 51.8327C43.9865 50.9899 43.7805 50.005 43.7805 48.8782C43.7805 47.7418 43.9865 46.7498 44.3984 45.9023C44.8151 45.0548 45.3928 44.3966 46.1314 43.9279C46.8748 43.4591 47.7389 43.2247 48.7237 43.2247C49.7086 43.2247 50.5703 43.4591 51.3089 43.9279C52.0523 44.3966 52.63 45.0548 53.0419 45.9023C53.4586 46.7498 53.6669 47.7418 53.6669 48.8782C53.6669 50.005 53.4586 50.9899 53.0419 51.8327C52.63 52.6755 52.0523 53.3313 51.3089 53.8C50.5703 54.2688 49.7086 54.5032 48.7237 54.5032ZM48.7237 52.9975C49.4718 52.9975 50.0874 52.8057 50.5703 52.4222C51.0533 52.0387 51.4107 51.5344 51.6428 50.9094C51.8748 50.2844 51.9908 49.6073 51.9908 48.8782C51.9908 48.149 51.8748 47.4695 51.6428 46.8398C51.4107 46.2101 51.0533 45.7011 50.5703 45.3128C50.0874 44.9246 49.4718 44.7304 48.7237 44.7304C47.9756 44.7304 47.3601 44.9246 46.8771 45.3128C46.3942 45.7011 46.0367 46.2101 45.8047 46.8398C45.5727 47.4695 45.4567 48.149 45.4567 48.8782C45.4567 49.6073 45.5727 50.2844 45.8047 50.9094C46.0367 51.5344 46.3942 52.0387 46.8771 52.4222C47.3601 52.8057 47.9756 52.9975 48.7237 52.9975ZM56.2255 54.2759V43.3668H57.8448V45.0145H57.9585C58.1573 44.4747 58.5172 44.0368 59.038 43.7006C59.5588 43.3644 60.146 43.1963 60.7994 43.1963C60.9225 43.1963 61.0763 43.1987 61.261 43.2034C61.4457 43.2082 61.5853 43.2153 61.68 43.2247V44.9293C61.6232 44.9151 61.493 44.8938 61.2894 44.8654C61.0906 44.8322 60.8799 44.8157 60.6573 44.8157C60.127 44.8157 59.6535 44.9269 59.2369 45.1495C58.8249 45.3673 58.4982 45.6703 58.2567 46.0585C58.02 46.4421 57.9016 46.88 57.9016 47.3725V54.2759H56.2255Z" fill="white"/>
<path d="M118.375 58.6483H111.642V36.8301H118.673C120.79 36.8301 122.601 37.2669 124.107 38.1404C125.612 39.0069 126.766 40.2534 127.569 41.8798C128.371 43.4991 128.773 45.438 128.773 47.6965C128.773 49.9693 128.368 51.926 127.558 53.5666C126.749 55.2001 125.57 56.4572 124.021 57.3379C122.473 58.2115 120.591 58.6483 118.375 58.6483ZM114.284 56.3045H118.205C120.009 56.3045 121.504 55.9565 122.69 55.2605C123.876 54.5644 124.76 53.5737 125.342 52.2882C125.925 51.0027 126.216 49.4721 126.216 47.6965C126.216 45.9352 125.928 44.4189 125.353 43.1475C124.778 41.8691 123.918 40.889 122.775 40.2072C121.631 39.5183 120.207 39.1738 118.503 39.1738H114.284V56.3045ZM133.205 58.6483V36.8301H146.372V39.1738H135.847V46.546H145.69V48.8897H135.847V56.3045H146.543V58.6483H133.205ZM151.134 58.6483V36.8301H153.776V56.3045H163.918V58.6483H151.134ZM163.916 39.1738V36.8301H180.279V39.1738H173.419V58.6483H170.776V39.1738H163.916Z" fill="white"/>
<path d="M178.667 57.1609H205.333L192 32.1494L178.667 57.1609Z" stroke="white" stroke-width="2" stroke-linecap="round" stroke-linejoin="round"/>
</svg>
